<svg xmlns="http://www.w3.org/2000/svg" width="109" height="54" viewBox="0 0 109 54" fill="none"><g clip-path="url(#clip0)"><path d="M76.7665 20.2964C76.5545 19.3425 76.1833 18.4946 75.7062 17.7527C75.1761 17.0108 74.4869 16.3749 73.5856 15.8979C72.7373 15.421 71.624 15.103 70.2986 14.8381C69.0262 14.6261 67.4888 14.5201 65.6863 14.5201H47.4489V39.4269H65.6863C67.4888 39.4269 69.0262 39.3209 70.2986 39.1089C71.624 38.897 72.6843 38.526 73.5856 38.0491C74.4869 37.5721 75.2291 36.9362 75.7062 36.1943C76.1833 35.4524 76.5545 34.6045 76.7665 33.6506C76.9786 32.7497 77.0846 31.6899 77.1376 30.577C77.1906 29.5172 77.1906 28.2983 77.1906 26.9735C77.1906 25.6487 77.1906 24.4298 77.1376 23.37C77.0846 22.2041 76.9786 21.1972 76.7665 20.2964ZM65.6863 35.2404H52.1143V18.7066H65.6863C66.9586 18.7066 68.0189 18.7596 68.8672 18.8126C69.6624 18.8655 70.2986 19.0245 70.7758 19.1835C71.1999 19.3425 71.518 19.5545 71.677 19.8194C71.8891 20.1374 72.1011 20.5613 72.2072 21.0913C72.3662 21.7272 72.4192 22.5221 72.4192 23.423C72.4192 24.4298 72.4723 25.5957 72.4723 26.9205C72.4723 28.2983 72.4723 29.4642 72.4192 30.4181C72.4192 31.3719 72.3132 32.1138 72.2072 32.7497C72.1011 33.2797 71.8891 33.7036 71.677 34.0216C71.465 34.2865 71.1469 34.4985 70.7758 34.6575C70.2986 34.8165 69.6094 34.9755 68.8142 35.0285C67.9659 35.1874 66.9056 35.2404 65.6863 35.2404Z" fill="#163a5f"></path><path d="M109 23.529V22.6281C109 21.6742 108.947 20.8263 108.788 20.0844C108.629 19.2895 108.417 18.5476 108.046 17.8587C107.675 17.1698 107.197 16.5869 106.614 16.1099C106.031 15.633 105.289 15.209 104.388 14.8911C103.539 14.5731 102.532 14.3611 101.419 14.2552C100.305 14.0962 98.9801 14.0432 97.4956 14.0432H90.7096C88.9071 14.0432 87.3166 14.1492 86.0973 14.3611C84.7719 14.5731 83.7116 14.9441 82.8103 15.421C81.9091 15.9509 81.1668 16.5869 80.6897 17.3817C80.2126 18.1237 79.8414 19.0245 79.6294 20.0314C79.4173 20.9853 79.3113 22.0451 79.2583 23.211C79.2053 24.3238 79.2053 25.5957 79.2053 26.9735C79.2053 28.3513 79.2053 29.6232 79.2583 30.736C79.3113 31.9019 79.4173 32.9617 79.6294 33.9156C79.8414 34.9225 80.2126 35.7704 80.6897 36.5653C81.2199 37.3602 81.9091 37.9961 82.8103 38.526C83.6586 39.0029 84.7719 39.3739 86.0973 39.5859C87.3697 39.7978 88.9071 39.9038 90.7096 39.9038H97.4956C98.9801 39.9038 100.305 39.8508 101.419 39.6919C102.585 39.5329 103.592 39.3209 104.441 39.0029C105.342 38.685 106.084 38.261 106.667 37.7311C107.25 37.2012 107.728 36.6182 108.099 35.8763C108.47 35.1874 108.682 34.3925 108.841 33.5446C108.947 32.7498 109.053 31.7959 109.053 30.789V29.8881H104.335V30.789C104.335 31.5309 104.282 32.2198 104.229 32.8027C104.176 33.2797 104.07 33.7566 103.911 34.0746C103.751 34.3925 103.592 34.6045 103.327 34.8165C103.062 35.0285 102.691 35.1874 102.267 35.2934C101.737 35.4524 101.101 35.5584 100.358 35.6114C99.5632 35.6644 98.609 35.7174 97.4956 35.7174H90.7096C89.4373 35.7174 88.377 35.6644 87.5287 35.6114C86.7335 35.5584 86.0973 35.3994 85.6201 35.1874C85.196 35.0285 84.9309 34.8165 84.7189 34.4985C84.5068 34.1806 84.2948 33.7036 84.1887 33.1207C84.0827 32.4848 83.9767 31.6369 83.9767 30.63C83.9767 29.6232 83.9236 28.3513 83.9236 26.9205C83.9236 25.4897 83.9236 24.2179 83.9767 23.211C83.9767 22.2041 84.0827 21.4092 84.1887 20.7203C84.2948 20.1374 84.4538 19.6605 84.7189 19.3425C84.9309 19.0245 85.249 18.8126 85.6732 18.6536C86.1503 18.4416 86.7865 18.3356 87.5817 18.2296C88.43 18.1766 89.4903 18.1237 90.7627 18.1237H97.5486C98.9801 18.1237 100.146 18.1766 101.101 18.2826C101.949 18.3886 102.638 18.5476 103.115 18.8656C103.539 19.1305 103.857 19.5015 104.017 19.9784C104.229 20.5613 104.335 21.4092 104.335 22.5221V23.423H109V23.529Z" fill="#163a5f"></path><path d="M5.30156 16.5868L23.3799 6.1472L37.8531 14.4671L43.2607 11.4465L23.3799 0L0 13.5132V24.9068L5.30156 21.9921V16.5868Z" fill="#2471a3"></path><path d="M44.7982 39.4269V14.4671L39.5496 17.3818V36.4593" fill="#163a5f"></path><path d="M37.8531 39.5859L37.1639 39.9568L23.3799 47.9058L15.1094 43.0834L23.1148 38.632L20.7821 34.3925L10.179 40.2748L8.27043 39.1619L23.3799 30.736L21.0472 26.4966L5.30156 35.2404V33.0677L23.0088 23.211L20.6231 18.9715L5.30156 27.5034L0 30.471V40.5397L21.6834 53.0461L23.3799 54L43.2607 42.5535L37.8531 39.5859Z" fill="#2471a3"></path></g><defs><clipPath id="clip0"><rect width="109" height="54" fill="#163a5f"></rect></clipPath></defs></svg>